<?xml version="1.0" encoding="utf-8"?>
<!-- Generator: Adobe Illustrator 21.0.0, SVG Export Plug-In . SVG Version: 6.00 Build 0)  -->
<!DOCTYPE svg PUBLIC "-//W3C//DTD SVG 1.1//EN" "http://www.w3.org/Graphics/SVG/1.1/DTD/svg11.dtd">
<svg version="1.1" xmlns="http://www.w3.org/2000/svg" xmlns:xlink="http://www.w3.org/1999/xlink" x="0px" y="0px"
	 viewBox="0 0 360 360" style="enable-background:new 0 0 360 360;" xml:space="preserve">
<style type="text/css">
	.st0{fill:#FFFFFF;}
	.st1{fill:#FFFFFF;}
</style>
<g id="Layer_4">
</g>
<g id="Layer_3">
	<g>
		<path d="M266.7,153.9c2-69.1,21.2-105.9,21.2-105.9s-22.1,14-32.8,25.9c-10.7,11.9-22.6,28.6-22.6,28.6l24.3-6.5
			c0,0-11,42-15.7,72.9c-4.8,30.9-11.6,34.8-22.2,32.6c-28.2-5.7-30.9-107.9-30.9-123.4l21.2,7.6l-28.8-73.4l-28.8,73.4l21.2-7.6
			c0,15.5-2.7,117.7-30.9,123.4c-10.6,2.2-17.5-1.7-22.2-32.6c-4.8-30.9-15.7-72.9-15.7-72.9l24.3,6.5c0,0-11.9-16.7-22.6-28.6
			C94.8,62,72.7,48,72.7,48s19.2,36.7,21.2,105.9c1.5,51.1-7.1,79.6,1.2,93.9c8.3,14.3,12.9,7.5,30.6,11.1
			c15.5,3.2,22,4.4,30.3,23.4c7.3,16.8,8.7,46,9,52.6c0,0.3-0.1,0.5-0.1,0.8c0,6.7,9.3,11.1,15.5,11c6.6-0.2,15.3-4.4,15.3-11.1
			c0-0.3,0-0.6-0.1-1c0.3-7.1,1.7-35.8,9-52.4c8.3-19,14.8-20.2,30.3-23.4c17.7-3.6,22.3,3.2,30.6-11.1
			C273.8,233.5,265.2,205,266.7,153.9z M240.7,96.5c0-0.8,4.7-8.9,13.6-17.1c3.9-3.7,16.5-13.8,16.5-13.8s-0.1,0.1-0.2,0.2
			c4.3-3.7,8-7,8-7L269,90.5l-1.4,0.7c0-0.4,0.1-0.8,0.1-0.8s0.6-1.4,0.8-2.6c0,0-1.1-1.2-1.1-1.7c0-0.5-0.2-0.8-0.3-1.2
			c-0.2-0.5,0-0.8,0.6-1.4c0.6-0.6,0-0.8-0.5-1.8c-0.2-0.5-0.4-1.1-0.5-1.5c1.5-4.7,2.3-7.8,2.3-7.8s-5.3,6.2-6.2,9
			c-0.1,0.4-0.3,0.9-0.5,1.4l-8.7,5c0.3-0.6,0.6-1.2,0.9-1.9c0.4-0.8,0.8-1.7,1.3-2.7c-2.6,1.9-11.7,11.6-11.7,11.6l12.2-2.4
			C256.4,92.4,240.7,97.5,240.7,96.5z M187.4,132.3c-2.3-2.3-2.3-2.5-3.4-4.2c-1.1-1.7-2.8-3.4-2.8-3.4s-1.4-3.4-1.7-2.3
			c-0.3,1.1,1.4,2.3-0.3,1.1c-1.7-1.1-1.4-12.9-1.4-12.9l0.1,0c0-0.1,0-0.2,0-0.4c0-1.9-0.6-5.5-0.6-5.5s0.9-1.9,1.4-1.7
			c0.8,0.4-0.3,1.9,0,3.6c0.3,1.7,1.4,3.3,1.7,4.1c0.2,0.6,0.5,0.5,0.6,1c0.3,0.2,0.6,0.5,1.1,0.8c2.5,1.7,3.1,1.1,3.1,2.8
			c0,1.7,0.8,6.2,1.7,10.4C187.7,130.1,189.7,134.6,187.4,132.3z M101.4,124.7c0,0,1.7,9.6,3,17.9c-0.1,0-0.3-0.2-0.6-0.7
			c-1.1-1.9-0.2-0.3-3-3.3c-1-10.8-2.3-18.9-2.3-18.9L101.4,124.7z M106,166.9c-1.4,5.4,0,4.8-1.4,8.8c-1,3-2.4,3.8-3.3,5.1
			c0.3-11.2,0.7-25.3,0.1-34.8c0.1,0,0.4,0.1,0.5,0h-0.5c0-0.5-0.1-1.1-0.1-1.6c0.8,1,0.8,1.4,0.6,1.6h1.4c0,0,0,0,0.8,2.4
			c0.7,2,0.2,0.7,1.2,2.6c0.5,5.6,0.7,11.3,0.9,14.5C106.3,166,106.2,166.4,106,166.9z M183.4,305.7c0,0,0,0,0,2.3s0,0,1.3,3.3
			c0.7,1.6,0.3,1.6-1,4.3c-0.6,1.2-1.3,2-2.9,4.3c-0.1,0.2-0.3,0.3-0.5,0.4c0.1-5.2,0.2-14.1,0.1-22.9c0.1-0.2,0.2-0.3,0.4-0.5
			c1.6-2,3.3-2.6,3.3-2.6l-1,7.5L183.4,305.7z M181,24.6c0,0,1.3,2,1.8,3.6c0.5,1.7,11.7,30.9,11.9,32.9c0.2,2-4-5.8-4-5.8
			s-6.3-18.4-7.4-22.2c-0.9-2.8-2.2-4.4-2-2.9c0.1,1.1,0.5,4.7,0.7,6.4c1,4.3,2.1,9.3,3.1,12.5c1.8,5.8,6.3,13.2,8.7,17.3
			c2,2.7,4.2,5.5,4.8,6.1c1,1,1.2,1.3,0,1.5c-1.2,0.2-3.8-1-3.8-1c-0.2-0.1-0.3-0.1-0.5-0.2c-0.3-0.3-0.7-0.5-0.9-0.6
			c-2.1-1.2-9.6-4.7-9.6-4.7l0.1,4.5c-0.1,6.3-0.3,20.4,0.1,25.5c0.5,6.6-1.5,8.1-1.5,8.1s-1-1.5-1.5-3.1c-0.5-1.5,1-2-0.5-4.1
			c-1.5-2-3.6-5.6-3.1-7.6c0.3-1,0-8.4-0.3-15.3l1.5-0.5l0.8-45.7C180.2,27,181,24.6,181,24.6z M163.4,69.9c-1.2,4.4,0.1,5,2.5,4.2
			c2.4-0.8,6.2-1.2,6.2-1.2L158,78.2l10.7-27.7C168.7,50.5,164.6,65.5,163.4,69.9z M144,209.7c12-2.4,18.6-24.2,18.6-24.2l0,0
			c0.6-1.8,1.4-4.3,2.4-7.5c2.2-7.2,2.7-15.1,3.5-12.8c1.4,4,1.3,11.9,0.9,18.7c0.1,1.5,0.4,3.1,0.7,4.8c0,0,1.2,10.1-3.5,20.9
			c-4.8,10.8-5.6,13.4-7.8,16.9c-2.2,3.5-3,5.2-2.6,9.1c0.4,3.9,1.3,7.8,1.3,7.8l2.3,7.2c-1.8-0.5-3.4-1.2-4.4-2
			c-3-2.4-10.8-12-13.8-16.8c-3-4.8-6.6-7.2-8.4-7.8c-1.8-0.6-4.8-0.6-8.4-2.4c-3.6-1.8-3-4.2-4.8-9.6c-1.8-5.4-5.4-9-7.2-16.2
			c-1.8-7.2,0-11.4,1.8-14.4c1.8-3,2.4,8.4,6.6,17.4C125.3,207.9,132,212.1,144,209.7z M81.5,60c-0.3-0.9-2.4-4.1-2.4-4.1
			s14.1,10.6,19.4,14.7c5.3,4.1,19.1,23.8,19.1,23.8l-2.3-0.9l0.2,0.3c-0.3-0.2-0.6-0.3-0.9-0.5l-4.4-1.8c0,0-0.2-0.3-0.5-0.7
			c-1.3-0.5-2.7-0.9-4-1.1c-5.5-0.7-6.4-1.1-6.7-0.2c-0.1,0.4,0.4,2.2,1.1,4.3l0.8,6.4c-1.1-2.4-2.3-4.4-2.9-4.7
			c-1.3-0.5-2.2-0.9-2.8-1.3c-1.3-3.8-3-8.5-4.5-12.6c-1.8-6.5-3.8-13.1-5-15.6c-0.6-1.2-1.1-2.4-1.4-3.2
			C82.7,61.2,81.6,60.2,81.5,60z M249.6,248.2c-6.2,2.5-37.6-0.3-45,6.5c-5.4,4.9-9.9,12.6-12.5,20.9l-1.8,2.3c0,0-4.3,3.6-5.3,9.4
			c-0.6,3.2,0.4,2.7-1.9,3.1c-1.2,0.2-2.2,0.9-2.8,1.4c-0.1-11.8-0.2-22.2-0.2-22.2V135.6c0.1,0.6,0.2,1.1,0.3,1.5
			c0.8,2.9,1.6,3,2.1,7c1,8.1,0.7,8.7,0.2,11.7c-0.5,3.1-0.5,4.1-0.5,7.1s2.2,8.2,1.4,9.5c-3.6,5.1-1.3,8.3-1.3,9.8
			c0,0.2-0.1,0.5-0.1,0.8c1.3,0.8,2,1.3,3.3,3c1.8,2.5,6.8,4.9,6.8,4.9s2.5,6.8,7.4,15.4c1,1.8,2.5,3.2,4.2,4.5
			c-2.1,1,1.3,2.4-1.1,2.9c-2.5,0.5-2.5-0.5-5.1,0c-2.5,0.5,1,3.1,9.7,7.1c8.7,4.1,15.8,3.6,23.4,1c7.5-2.5,11.7-11.2,15.3-15.3
			c3.6-4.1,0.5-3.6,1.5-6.6c1-3.1,1.5-3.6,4.1-4.6c2.5-1,1-3.1,2-5.1c1-2,1-5.1,0.5-7.1c-0.4-1.4,1.2-1.8,2.3-2
			c0.1,2.3,0.1,5.1,0.4,7.3c0.6,4.9,1.2,25.9,1.2,36.3C258.2,235.3,255.8,245.7,249.6,248.2z M256.8,167.7c-0.4,9.3-2.2,8.4-2.2,6.2
			c0-2.2-0.9-6.2-0.9-8c0-1.8-0.4-2.2,0.4-5.3c0.9-3.1,0-8.4,1.3-11.9c1.3-3.5,3.1-26.1,3.1-26.1l3.5-5.3
			C262.1,117.3,257.2,158.4,256.8,167.7z"/>
		<path class="st0" d="M256.6,181.1c-1,0.1-2.6,0.6-2.3,2c0.5,2,0.5,5.1-0.5,7.1c-1,2,0.5,4.1-2,5.1c-2.5,1-3.1,1.5-4.1,4.6
			c-1,3.1,2,2.5-1.5,6.6c-3.6,4.1-7.8,12.8-15.3,15.3c-7.6,2.5-14.8,3.1-23.4-1c-8.7-4.1-12.2-6.6-9.7-7.1c2.5-0.5,2.5,0.5,5.1,0
			c2.4-0.5-1.1-1.9,1.1-2.9c-1.8-1.2-3.2-2.7-4.2-4.5c-4.9-8.6-7.4-15.4-7.4-15.4s-4.9-2.5-6.8-4.9c-1.3-1.7-2-2.2-3.3-3
			c0.1-0.3,0.1-0.5,0.1-0.8c0-1.5-2.3-4.7,1.3-9.8c0.9-1.3-1.4-6.4-1.4-9.5s0-4.1,0.5-7.1c0.5-3.1,0.8-3.6-0.2-11.7
			c-0.5-4.1-1.3-4.1-2.1-7c-0.1-0.4-0.2-0.9-0.3-1.5v134.1c0,0,0.1,10.4,0.2,22.2c0.6-0.5,1.6-1.2,2.8-1.4c2.2-0.4,1.3,0,1.9-3.1
			c1-5.8,5.3-9.4,5.3-9.4l1.8-2.3c2.6-8.3,7.1-16,12.5-20.9c7.4-6.8,38.8-4,45-6.5c6.2-2.5,8.6-12.9,8.6-23.4
			c0-10.5-0.6-31.4-1.2-36.3C256.7,186.2,256.7,183.5,256.6,181.1z"/>
		<path class="st0" d="M85.9,65.9c1.3,2.5,3.2,9,5,15.6c1.5,4.1,3.2,8.8,4.5,12.6c0.6,0.3,1.4,0.7,2.8,1.3c0.6,0.2,1.7,2.3,2.9,4.7
			l-0.8-6.4c-0.7-2.1-1.2-3.9-1.1-4.3c0.2-0.9,1.1-0.5,6.7,0.2c1.3,0.2,2.7,0.6,4,1.1c0.3,0.4,0.5,0.7,0.5,0.7l4.4,1.8
			c0.3,0.2,0.6,0.4,0.9,0.5l-0.2-0.3l2.3,0.9c0,0-13.8-19.7-19.1-23.8c-5.3-4.1-19.4-14.7-19.4-14.7s2.1,3.2,2.4,4.1
			c0.1,0.2,1.2,1.2,2.9,2.7C84.7,63.5,85.3,64.7,85.9,65.9z"/>
		<path class="st0" d="M178.6,75.1l-1.5,0.5c0.3,6.9,0.6,14.3,0.3,15.3c-0.5,2,1.5,5.6,3.1,7.6c1.5,2,0,2.5,0.5,4.1
			c0.5,1.5,1.5,3.1,1.5,3.1s2-1.5,1.5-8.1c-0.4-5.1-0.2-19.2-0.1-25.5l-0.1-4.5c0,0,7.5,3.5,9.6,4.7c0.3,0.1,0.6,0.4,0.9,0.6
			c0.2,0.1,0.3,0.1,0.5,0.2c0,0,2.6,1.2,3.8,1c1.2-0.2,1-0.5,0-1.5c-0.6-0.6-2.8-3.4-4.8-6.1c-2.4-4.1-6.9-11.5-8.7-17.3
			c-1-3.2-2.2-8.2-3.1-12.5c-0.2-1.7-0.6-5.3-0.7-6.4c-0.2-1.5,1.1,0.1,2,2.9c1.2,3.8,7.4,22.2,7.4,22.2s4.1,7.8,4,5.8
			c-0.2-2-11.4-31.3-11.9-32.9c-0.5-1.7-1.8-3.6-1.8-3.6s-0.8,2.3-1.6,4.7L178.6,75.1z"/>
		<path class="st0" d="M103.9,141.9c0.3,0.5,0.4,0.6,0.6,0.7c-1.4-8.3-3-17.9-3-17.9l-2.8-5c0,0,1.2,8.1,2.3,18.9
			C103.7,141.7,102.7,140,103.9,141.9z"/>
		<path class="st1" d="M101.4,144.4c0,0.5,0.1,1,0.1,1.6h0.5C102.2,145.9,102.2,145.5,101.4,144.4z"/>
		<path class="st0" d="M104.3,148.5c-0.8-2.4-0.8-2.4-0.8-2.4H102c-0.1,0.1-0.4,0.1-0.5,0c0.6,9.5,0.2,23.6-0.1,34.8
			c0.9-1.3,2.3-2.1,3.3-5.1c1.4-4.1,0-3.4,1.4-8.8c0.1-0.5,0.3-1,0.4-1.4c-0.3-3.3-0.4-8.9-0.9-14.5
			C104.5,149.1,105,150.5,104.3,148.5z"/>
		<path class="st0" d="M180.8,296.8c-0.1,0.1-0.2,0.3-0.4,0.5c0,8.8,0,17.7-0.1,22.9c0.2-0.1,0.3-0.2,0.5-0.4
			c1.6-2.3,2.4-3.1,2.9-4.3c1.3-2.6,1.6-2.6,1-4.3c-1.3-3.3-1.3-1-1.3-3.3s0-2.3,0-2.3l-0.3-3.9l1-7.5
			C184.1,294.2,182.4,294.9,180.8,296.8z"/>
		<path class="st0" d="M255.9,83.1c-0.5,1-0.9,1.9-1.3,2.7c-0.3,0.7-0.6,1.3-0.9,1.9l8.7-5c0.2-0.5,0.3-1,0.5-1.4
			c0.9-2.8,6.2-9,6.2-9s-0.9,3.1-2.3,7.8c0.1,0.4,0.3,1,0.5,1.5c0.5,1.1,1.1,1.2,0.5,1.8c-0.6,0.6-0.8,0.9-0.6,1.4
			c0.2,0.5,0.3,0.8,0.3,1.2c0,0.5,1.1,1.7,1.1,1.7c-0.2,1.2-0.8,2.6-0.8,2.6s0,0.3-0.1,0.8l1.4-0.7l9.8-31.6c0,0-3.7,3.3-8,7
			c0.1-0.1,0.2-0.2,0.2-0.2s-12.6,10.1-16.5,13.8c-8.9,8.3-13.6,16.4-13.6,17.1c0,1,15.7-4.1,15.7-4.1l-12.2,2.4
			C244.2,94.7,253.3,85,255.9,83.1z"/>
		<path class="st0" d="M121.1,198.9c-4.2-9-4.8-20.4-6.6-17.4c-1.8,3-3.6,7.2-1.8,14.4c1.8,7.2,5.4,10.8,7.2,16.2
			c1.8,5.4,1.2,7.8,4.8,9.6c3.6,1.8,6.6,1.8,8.4,2.4c1.8,0.6,5.4,3,8.4,7.8c3,4.8,10.8,14.4,13.8,16.8c1,0.8,2.6,1.4,4.4,2l-2.3-7.2
			c0,0-0.9-3.9-1.3-7.8c-0.4-3.9,0.4-5.6,2.6-9.1c2.2-3.5,3-6.1,7.8-16.9c4.8-10.8,3.5-20.9,3.5-20.9c-0.3-1.7-0.5-3.3-0.7-4.8
			c0.4-6.8,0.5-14.7-0.9-18.7c-0.8-2.3-1.3,5.6-3.5,12.8c-1,3.2-1.8,5.7-2.4,7.5l0,0c0,0-6.6,21.8-18.6,24.2
			C132,212.1,125.3,207.9,121.1,198.9z"/>
		<path class="st0" d="M185.2,115.5c0-1.7-0.6-1.1-3.1-2.8c-0.4-0.3-0.8-0.5-1.1-0.8c-0.1-0.5-0.4-0.5-0.6-1
			c-0.3-0.8-1.4-2.5-1.7-4.1c-0.3-1.7,0.8-3.2,0-3.6c-0.5-0.2-1.4,1.7-1.4,1.7s0.6,3.6,0.6,5.5c0,0.1,0,0.2,0,0.4l-0.1,0
			c0,0-0.3,11.8,1.4,12.9c1.7,1.1,0,0,0.3-1.1c0.3-1.1,1.7,2.3,1.7,2.3s1.7,1.7,2.8,3.4c1.1,1.7,1.1,2,3.4,4.2s0.3-2.3-0.6-6.5
			C186,121.7,185.2,117.2,185.2,115.5z"/>
		<path class="st0" d="M255.5,148.7c-1.3,3.5-0.4,8.9-1.3,11.9c-0.9,3.1-0.4,3.5-0.4,5.3c0,1.8,0.9,5.8,0.9,8c0,2.2,1.8,3.1,2.2-6.2
			c0.4-9.3,5.3-50.5,5.3-50.5l-3.5,5.3C258.6,122.6,256.8,145.2,255.5,148.7z"/>
		<path class="st0" d="M158,78.2l14.1-5.3c0,0-3.8,0.4-6.2,1.2c-2.4,0.8-3.7,0.1-2.5-4.2c1.2-4.4,5.3-19.3,5.3-19.3L158,78.2z"/>
	</g>
</g>
</svg>
